<svg xmlns="http://www.w3.org/2000/svg" viewBox="0 0 168 168">
  <g transform="translate(0 34)" fill="#F30100">
    <path d="M 13.70 1.90 C 28.00 1.90 45.00 2.00 60.00 2.05 C 76.05 2.10 97.48 2.09 110.00 2.20 C 122.52 2.31 130.08 2.37 135.10 2.70 C 140.12 3.03 138.25 3.48 140.10 4.20 C 141.95 4.92 143.77 5.48 146.20 7.00 C 148.63 8.52 151.65 9.53 154.70 13.30 C 157.75 17.07 162.67 25.62 164.50 29.60 C 166.33 33.58 165.55 34.13 165.70 37.20 C 165.85 40.27 165.77 44.98 165.40 48.00 C 165.03 51.02 165.67 55.65 163.50 55.30 C 161.33 54.95 155.63 48.18 152.40 45.90 C 149.17 43.62 146.40 42.62 144.10 41.60 C 141.80 40.58 144.28 40.30 138.60 39.80 C 132.92 39.30 119.77 38.83 110.00 38.60 C 100.23 38.37 89.13 38.47 80.00 38.40 C 70.87 38.33 62.23 38.78 55.20 38.20 C 48.17 37.62 42.23 37.18 37.80 34.90 C 33.37 32.62 32.03 28.42 28.60 24.50 C 25.17 20.58 19.68 15.17 17.20 11.40 C 15.40 8.20 12.80 3.40 13.70 1.90 Z" />
    <path d="M 99.90 48.90 C 106.92 48.80 124.97 49.20 131.80 49.70 C 138.63 50.20 138.72 51.30 140.90 51.90 C 143.08 52.50 142.67 52.28 144.90 53.30 C 147.13 54.32 151.63 56.28 154.30 58.00 C 156.97 59.72 159.07 61.32 160.90 63.60 C 162.73 65.88 164.62 69.05 165.30 71.70 C 165.98 74.35 166.02 76.87 165.00 79.50 C 163.98 82.13 162.05 84.95 159.20 87.50 C 156.35 90.05 150.88 93.22 147.90 94.80 C 144.92 96.38 145.28 96.47 141.30 97.00 C 137.32 97.53 128.92 97.82 124.00 98.00 C 119.08 98.15 114.43 98.15 111.80 98.10 C 109.17 96.77 108.97 93.68 108.20 90.00 C 107.43 86.32 107.50 80.30 107.20 76.00 C 106.90 71.70 107.93 66.18 106.40 64.20 C 104.87 62.22 100.27 63.88 98.00 64.10 C 95.73 64.32 95.72 64.40 92.80 65.50 C 89.88 66.60 84.13 68.67 80.50 70.70 C 76.87 72.73 74.47 74.58 71.00 77.70 C 67.53 80.82 62.52 86.05 59.70 89.40 C 56.88 92.75 59.05 96.37 54.10 97.80 C 46.40 98.05 37.68 98.05 30.00 98.00 C 22.32 97.90 12.55 97.53 8.00 97.20 C 3.45 96.87 2.13 97.48 2.70 96.00 C 3.27 94.52 8.82 90.50 11.40 88.30 C 13.98 86.10 15.90 84.57 18.20 82.80 C 20.50 81.03 22.90 79.33 25.20 77.70 C 27.50 76.07 27.87 75.58 32.00 73.00 C 36.13 70.42 44.65 64.97 50.00 62.20 C 55.35 59.43 61.05 57.62 64.10 56.40 C 67.15 55.18 66.45 55.48 68.30 54.90 C 70.15 54.32 73.08 53.47 75.20 52.90 C 77.32 52.33 78.58 51.93 81.00 51.50 C 83.42 51.07 86.55 50.73 89.70 50.30 C 92.85 49.87 92.88 49.00 99.90 48.90 Z" />
  </g>
</svg>
